<svg width="20" height="20" viewBox="0 0 20 20" fill="none" xmlns="http://www.w3.org/2000/svg">
<path fill-rule="evenodd" clip-rule="evenodd" d="M9.99878 0C4.48133 0 0 4.48174 0 9.99878C0 15.5183 4.48174 20 9.99878 20C15.5162 20 20 15.5183 20 9.99878C20 4.48133 15.5162 0 9.99878 0ZM10.4533 1.06376C10.7509 1.15412 11.0472 1.33532 11.345 1.6153C11.7942 2.0373 12.2274 2.68113 12.5948 3.4974C12.7195 3.77468 12.8365 4.07192 12.9451 4.38628H10.4533L10.4533 1.06376ZM9.54428 1.06392V4.38628H7.05325C7.16184 4.07191 7.27884 3.77467 7.4036 3.4974C7.77108 2.68112 8.2045 2.03717 8.65364 1.6153C8.95121 1.33565 9.2472 1.15446 9.54428 1.06392ZM7.8123 1.17315C7.33669 1.68443 6.92516 2.34612 6.5748 3.12436C6.39835 3.51625 6.2376 3.93828 6.09379 4.38646H2.84452C4.07618 2.81779 5.81335 1.66556 7.81246 1.17331L7.8123 1.17315ZM12.1865 1.1733C14.1853 1.66571 15.9226 2.81791 17.1544 4.38629H13.9043C13.7607 3.93828 13.6 3.51624 13.4237 3.12436C13.0735 2.34611 12.6621 1.68455 12.1865 1.1733ZM2.21611 5.29546H5.83543C5.51535 6.57087 5.32399 8.01178 5.29245 9.54465H0.920292C0.996388 7.99372 1.45994 6.54567 2.21632 5.29546H2.21611ZM6.77658 5.29546H9.54456V9.54465H6.20191C6.23599 7.9923 6.44399 6.5425 6.77675 5.29546H6.77658ZM10.4534 5.29546H13.2219C13.5545 6.5425 13.7621 7.99226 13.7961 9.54465H10.4534V5.29546ZM14.1629 5.29546H17.7834C18.5401 6.54583 19.0039 7.99368 19.08 9.54465H14.7054C14.6737 8.01178 14.4828 6.57091 14.1629 5.29546H14.1629ZM0.920252 10.4533H5.29241C5.32364 11.9635 5.5096 13.3845 5.82082 14.6457H2.18121C1.44545 13.4085 0.995049 11.9809 0.920252 10.4533ZM6.20191 10.4533H9.54456V14.6457H6.7612C6.43748 13.4115 6.23551 11.9822 6.20191 10.4533ZM10.4535 10.4533H13.7962C13.7626 11.9822 13.5609 13.4116 13.2375 14.6457H10.4535L10.4535 10.4533ZM14.7056 10.4533H19.0802C19.0052 11.9811 18.5545 13.4085 17.8184 14.6457H17.8158H14.1777C14.4887 13.3844 14.6743 11.9635 14.7056 10.4533ZM2.79931 15.5548H6.07585C6.22424 16.0245 6.39117 16.4665 6.57508 16.8755C6.92544 17.6539 7.33697 18.3158 7.81274 18.8271C5.78892 18.3287 4.03348 17.1538 2.79935 15.5548H2.79931ZM7.03348 15.5548H9.54464V18.9361C9.24755 18.8458 8.95158 18.6646 8.65402 18.3847C8.20507 17.9628 7.77163 17.3188 7.40414 16.5023C7.27161 16.2078 7.14763 15.8909 7.03349 15.5548L7.03348 15.5548ZM10.4537 15.5548H12.9656C12.8515 15.891 12.7277 16.208 12.5951 16.5025C12.2278 17.319 11.7944 17.9629 11.3454 18.385C11.0475 18.6649 10.7512 18.8461 10.4537 18.9365L10.4537 15.5548ZM13.923 15.5548H17.2003C15.9658 17.1535 14.2104 18.3283 12.1865 18.8268C12.6623 18.3155 13.0737 17.6536 13.4239 16.8754C13.6078 16.4665 13.7745 16.0245 13.9228 15.5548H13.923Z" fill="black"/>
</svg>
