<svg width="20" height="20" viewBox="0 0 20 20" fill="none" xmlns="http://www.w3.org/2000/svg">
<path fill-rule="evenodd" clip-rule="evenodd" d="M15.0232 5.02414L14.9759 4.97661C14.3509 4.35164 13.5031 4.0004 12.619 4.0004H3.38058C2.49648 4.0004 1.64872 4.35162 1.02374 4.97661L0.976217 5.02414C0.351238 5.64912 0 6.49709 0 7.38097V16.6194C0 17.5033 0.351226 18.3513 0.976217 18.9764L1.02374 19.0236C1.64872 19.6488 2.49652 20 3.38058 20H12.619C13.5031 20 14.3509 19.6488 14.9759 19.0236L15.0232 18.9764C15.6484 18.3513 15.9996 17.5033 15.9996 16.6194V7.38097C15.9996 6.49705 15.6484 5.64912 15.0232 5.02414Z" fill="black"/>
<path fill-rule="evenodd" clip-rule="evenodd" d="M15.9998 14.333H16.6191C17.0611 14.333 17.485 14.1574 17.7976 13.8449L17.845 13.7975C18.1575 13.4849 18.3331 13.061 18.3331 12.619V3.38058C18.3331 2.93855 18.1575 2.51473 17.845 2.20208L17.7976 2.15471C17.485 1.84223 17.0611 1.66661 16.6191 1.66661H7.38067C6.93865 1.66661 6.51483 1.84222 6.20217 2.15471L6.15481 2.20208C5.84232 2.51473 5.6667 2.93855 5.6667 3.38058V3.99985H4.00009V3.38058C4.00009 2.49648 4.35132 1.64872 4.97631 1.02374L5.02383 0.976217C5.64881 0.351238 6.49662 0 7.38067 0H16.6191C17.503 0 18.351 0.351226 18.9761 0.976217L19.0233 1.02374C19.6485 1.64872 19.9997 2.49652 19.9997 3.38058V12.619C19.9997 13.5031 19.6485 14.3509 19.0233 14.9759L18.9761 15.0232C18.351 15.6484 17.503 15.9996 16.6191 15.9996H15.9998L15.9998 14.333Z" fill="black"/>
</svg>
