<svg width="20" height="20" viewBox="0 0 20 20" fill="none" xmlns="http://www.w3.org/2000/svg">
<path d="M10 16C15.3991 16 19.6244 10.8 19.7888 10.5882C20.0704 10.2354 20.0704 9.76462 19.7888 9.41177C19.6245 9.20004 15.3991 4 10 4C4.60092 4 0.375551 9.2 0.211231 9.41177C-0.0704102 9.76464 -0.0704102 10.2354 0.211231 10.5882C0.375467 10.8 4.60092 16 10 16ZM10 6.94118C11.6198 6.94118 12.9343 8.30588 12.9343 10C12.9343 11.6942 11.6198 13.0589 10 13.0589C8.38023 13.0589 7.06572 11.6942 7.06572 10C7.06572 8.30588 8.38023 6.94118 10 6.94118ZM17.8169 10C17.0657 10.8 15.5869 12.2119 13.7089 13.1529C14.3896 12.3059 14.8122 11.2 14.8122 10C14.8122 8.80009 14.3898 7.6942 13.7089 6.84714C15.5633 7.78824 17.0657 9.20009 17.8169 10ZM6.29106 6.84714C5.58679 7.6942 5.18777 8.80009 5.18777 10C5.18777 11.2 5.61023 12.3059 6.29106 13.1529C4.41308 12.2119 2.93433 10.8 2.18307 10C2.93433 9.20009 4.43668 7.78824 6.29106 6.84714Z" fill="black"/>
</svg>
