<svg width="20" height="20" viewBox="0 0 24 20" fill="none" xmlns="http://www.w3.org/2000/svg">
<path d="M23.0268 5.98229H5.32328C4.69144 5.98229 4.02611 6.47759 3.84688 7.0829L0.328966 18.8994C0.148547 19.5049 0.517459 20 1.15048 20H18.8531C19.4838 20 20.149 19.5047 20.3295 18.8994L23.8486 7.08388C24.0278 6.47858 23.6578 5.98215 23.027 5.98215L23.0268 5.98229Z" fill="black"/>
<path d="M5.32278 4.83355H22.0878V3.47217C22.0878 2.84033 21.5697 2.32332 20.939 2.32332H11.2363C10.6056 2.32332 9.70146 1.97979 9.23043 1.55932L8.33644 0.764C7.86539 0.343539 6.96118 0 6.33052 0H1.14905C0.516075 0 0.000192342 0.517015 0.000192342 1.14886L0 15.9744L2.74471 6.75674C3.07226 5.66077 4.17979 4.8335 5.32303 4.8335L5.32278 4.83355Z" fill="black"/>
</svg>
