<svg width="20" height="18" viewBox="0 0 22 18" fill="none" xmlns="http://www.w3.org/2000/svg">
<path d="M0.970965 12.6094C1.29339 12.6079 1.5952 12.4513 1.78213 12.1887L2.41305 11.3073L2.41322 11.3075C2.93834 13.197 4.06525 14.8637 5.6234 16.0548C7.18138 17.2459 9.08524 17.8963 11.0463 17.9075C13.421 17.9075 15.6983 16.9642 17.3775 15.285C19.0567 13.6058 20 11.3283 20 8.95383C20 6.57915 19.0567 4.30182 17.3775 2.62266C15.6985 0.943464 13.421 0.000141918 11.0463 0.000141918C9.83657 -0.00673266 8.63858 0.236219 7.52696 0.713568C6.41546 1.19092 5.41432 1.89245 4.58638 2.77439C4.39976 2.96202 4.29514 3.21586 4.29514 3.48044C4.29514 3.74502 4.39976 3.99886 4.58638 4.18648C4.77434 4.37612 5.03038 4.48275 5.29744 4.48275C5.56454 4.48275 5.82042 4.37611 6.00851 4.18648C7.30895 2.80959 9.12228 2.03363 11.0164 2.04316C13.4995 2.04316 15.7941 3.36806 17.0359 5.5186C18.2775 7.66914 18.2775 10.3187 17.0359 12.4691C15.7941 14.6197 13.4996 15.9444 11.0164 15.9444C9.4473 15.9245 7.93057 15.3787 6.70859 14.3945C5.48661 13.4103 4.62999 12.0446 4.27604 10.5162L5.64808 11.5978C5.8575 11.7636 6.12462 11.8389 6.38967 11.8069C6.65492 11.7749 6.89638 11.6384 7.06034 11.4276C7.22298 11.2187 7.29642 10.9541 7.26439 10.6914C7.23254 10.4287 7.0979 10.1893 6.88999 10.0254L3.88537 7.63176C3.66975 7.46392 3.39475 7.39149 3.12434 7.43139H3.01418C2.82086 7.4599 2.64011 7.54424 2.49425 7.67418C2.34822 7.80412 2.24359 7.9738 2.19279 8.16243L0.189648 10.9767L0.189815 10.9769C0.0335492 11.193 -0.0299984 11.4626 0.0132595 11.7259C0.0565175 11.9891 0.202894 12.2242 0.420193 12.3789C0.576124 12.5101 0.768274 12.5904 0.970983 12.6093L0.970965 12.6094Z" fill="black"/>
<path d="M10.9862 5.38803C10.7206 5.38803 10.466 5.49366 10.2782 5.68145C10.0902 5.86924 9.98474 6.12394 9.98474 6.38968V9.3943C9.98424 9.60422 10.0496 9.80912 10.1719 9.97982C10.2941 10.1505 10.4668 10.2786 10.6658 10.3457L13.6704 11.3472V11.3473C13.7746 11.3778 13.8824 11.3946 13.9909 11.3973C14.2009 11.398 14.4057 11.3324 14.5765 11.2102C14.7472 11.0879 14.8752 10.9152 14.9424 10.7162C15.0281 10.464 15.0096 10.1879 14.8913 9.94913C14.7729 9.71054 14.5641 9.52878 14.3114 9.44427L11.9879 8.67315V6.38968C11.9879 6.12393 11.8823 5.86924 11.6945 5.68145C11.5067 5.49366 11.252 5.38803 10.9862 5.38803Z" fill="black"/>
</svg>
