<svg width="20" height="20" viewBox="0 0 20 20" fill="none" xmlns="http://www.w3.org/2000/svg">
<path d="M8.4293 0.000876302C8.20971 0.0170588 8.01493 0.147634 7.91627 0.344751C7.81776 0.541729 7.82975 0.77609 7.94818 0.961904C8.06661 1.14758 8.2738 1.25737 8.49381 1.25081H11.5065C11.6743 1.25458 11.8367 1.19041 11.9568 1.07281C12.0769 0.955204 12.1446 0.794079 12.1446 0.625825C12.1446 0.457586 12.0769 0.296457 11.9568 0.178844C11.8367 0.0612416 11.6743 -0.00292711 11.5065 0.000837018H8.49381C8.47235 -0.000279006 8.45076 -0.000279006 8.4293 0.000837018L8.4293 0.000876302ZM11.5758 2.49952C11.5527 2.4991 11.5294 2.49994 11.5065 2.50203H8.49381C8.47236 2.50092 8.45076 2.50092 8.4293 2.50203C8.21864 2.52854 8.03598 2.66023 7.94413 2.85177C7.85231 3.04331 7.86402 3.26846 7.9752 3.44953C8.08625 3.63046 8.28174 3.74262 8.4938 3.74709H11.5064C11.6748 3.76187 11.8418 3.70761 11.9696 3.59684C12.0973 3.48608 12.1748 3.32816 12.1841 3.15922C12.1936 2.99028 12.1341 2.82469 12.0196 2.70038C11.9049 2.57608 11.7448 2.50357 11.5758 2.49952ZM8.49383 4.99706C8.32746 4.99636 8.16765 5.06235 8.05007 5.18009C7.93248 5.29783 7.86657 5.45784 7.86726 5.62439V11.447H5.94099C5.7802 11.4462 5.6254 11.5074 5.50864 11.618C5.39189 11.7287 5.32222 11.88 5.31414 12.0407C5.3062 12.2014 5.3604 12.3591 5.46545 12.4809L9.52531 17.1949L9.52545 17.1948C9.64402 17.3324 9.81637 17.4113 9.99778 17.4113C10.1792 17.4113 10.3517 17.3324 10.4702 17.1948L14.5301 12.4807C14.6352 12.3589 14.6894 12.2013 14.6814 12.0406C14.6733 11.8799 14.6037 11.7285 14.4869 11.6179C14.3702 11.5073 14.2154 11.446 14.0546 11.4469H12.1295V5.62425C12.1301 5.45838 12.0649 5.29893 11.948 5.1812C11.8311 5.0636 11.6723 4.99719 11.5066 4.99691L8.49383 4.99706ZM17.4851 14.5181C17.318 14.5193 17.1585 14.5877 17.042 14.7077C16.9256 14.8276 16.8621 14.9892 16.8657 15.1564V18.0446C16.8657 18.4449 16.5609 18.75 16.161 18.75H3.83411C3.43422 18.75 3.1295 18.4448 3.1295 18.0446L3.12936 15.1564C3.1327 14.9874 3.06736 14.824 2.94837 14.704C2.82938 14.5839 2.66678 14.5172 2.4979 14.5192C2.33238 14.5225 2.17479 14.5914 2.05999 14.7109C1.94533 14.8304 1.88262 14.9907 1.88583 15.1565V18.0446C1.88583 19.1157 2.76418 20 3.83397 20H16.1608C17.2308 20 18.114 19.1157 18.114 18.0446L18.1141 15.1565C18.1176 14.9875 18.0528 14.8244 17.9343 14.7042C17.8158 14.5838 17.6538 14.5167 17.4851 14.5181Z" fill="black"/>
</svg>
