<svg width="20" height="20" viewBox="0 0 20 20" fill="none" xmlns="http://www.w3.org/2000/svg">
<path d="M13.88 7.10001C11.92 7.10001 10.34 5.49998 10.34 3.55999C10.34 1.61999 11.92 0 13.88 0C15.8399 0 17.42 1.60003 17.42 3.54002C17.42 5.48002 15.82 7.10001 13.88 7.10001ZM13.88 1.94003C13 1.94003 12.26 2.66003 12.26 3.55999C12.26 4.45995 12.98 5.17995 13.88 5.17995C14.76 5.17995 15.4999 4.45995 15.4999 3.55999C15.4999 2.66003 14.76 1.94003 13.88 1.94003Z" fill="black"/>
<path d="M16.46 20C14.5 20 12.92 18.3999 12.92 16.4599C12.92 14.52 14.52 12.9199 16.46 12.9199C18.4 12.9199 20 14.52 20 16.4599C20 18.3999 18.4 20 16.46 20ZM16.46 14.84C15.5799 14.84 14.84 15.56 14.84 16.4599C14.84 17.3599 15.56 18.0799 16.46 18.0799C17.3599 18.0799 18.0799 17.3599 18.0799 16.4599C18.0799 15.56 17.34 14.84 16.46 14.84Z" fill="black"/>
<path d="M3.54002 13.54C1.60003 13.54 0 11.9599 0 9.99995C0 8.04 1.60003 6.45993 3.54002 6.45993C5.48002 6.45993 7.08005 8.05996 7.08005 9.99995C7.07991 11.9399 5.49998 13.54 3.54002 13.54ZM3.54002 8.37999C2.65999 8.37999 1.92006 9.09999 1.92006 9.99995C1.92006 10.8999 2.64006 11.6199 3.54002 11.6199C4.43998 11.6199 5.15998 10.8999 5.15998 9.99995C5.15998 9.09999 4.43998 8.37999 3.54002 8.37999Z" fill="black"/>
<path d="M5.3943 8.24179L11.2254 4.26144L12.3191 5.86369L6.48805 9.84403L5.3943 8.24179Z" fill="black"/>
<path d="M5.06323 12.6657L5.79148 10.8676L14.5229 14.4039L13.7946 16.202L5.06323 12.6657Z" fill="black"/>
</svg>
