<svg width="23" height="20" viewBox="0 0 23 20" fill="none" xmlns="http://www.w3.org/2000/svg">
<path fill-rule="evenodd" clip-rule="evenodd" d="M9.20011 15.0846H6.70227C6.06291 15.0846 5.47955 15.4398 5.19356 16.0018L4.58022 17.2086C4.31873 17.7229 4.34629 18.3338 4.65381 18.8233C4.96116 19.312 5.50398 19.61 6.08892 19.61H16.9112C17.4961 19.61 18.0389 19.312 18.3463 18.8233C18.6538 18.3339 18.6814 17.7229 18.4199 17.2086L17.8066 16.0018C17.5206 15.4398 16.9372 15.0846 16.2978 15.0846H13.8V10.5592H17.6333C19.057 10.5592 20.4217 10.0033 21.4283 9.01306C22.4349 8.02277 23 6.68016 23 5.27962C23 3.87907 22.4349 2.53646 21.4283 1.54617C20.4217 0.55589 19.057 0 17.6333 0H5.36667C3.94303 0 2.57828 0.55589 1.57167 1.54617C0.565055 2.53646 0 3.87907 0 5.27962C0 6.68016 0.565055 8.02277 1.57167 9.01306C2.57828 10.0033 3.94303 10.5592 5.36667 10.5592H9.2L9.20011 15.0846ZM12.2668 15.0846V10.5592H10.7334V15.0846H12.2668ZM11.5001 2.26269C9.80727 2.26269 8.43345 3.61423 8.43345 5.27962C8.43345 6.945 9.80727 8.29654 11.5001 8.29654C13.193 8.29654 14.5668 6.945 14.5668 5.27962C14.5668 3.61423 13.193 2.26269 11.5001 2.26269ZM11.5001 3.77115C12.3465 3.77115 13.0334 4.44694 13.0334 5.27962C13.0334 6.11229 12.3465 6.78808 11.5001 6.78808C10.6537 6.78808 9.96678 6.11229 9.96678 5.27962C9.96678 4.44694 10.6537 3.77115 11.5001 3.77115ZM4.02533 4.33683C4.55429 4.33683 4.98367 4.75923 4.98367 5.27962C4.98367 5.8 4.5543 6.2224 4.02533 6.2224C3.49637 6.2224 3.067 5.8 3.067 5.27962C3.067 4.75923 3.49637 4.33683 4.02533 4.33683ZM6.90033 4.52538C7.32354 4.52538 7.667 4.86327 7.667 5.27962C7.667 5.69596 7.32354 6.03385 6.90033 6.03385C6.47712 6.03385 6.13367 5.69596 6.13367 5.27962C6.13367 4.86327 6.47712 4.52538 6.90033 4.52538Z" fill="black"/>
</svg>
